<svg width="120" height="35" viewBox="0 0 120 35" fill="none" xmlns="http://www.w3.org/2000/svg">
<path d="M9.32513 18.649C14.4753 18.649 18.6503 14.4743 18.6503 9.3245C18.6503 4.17472 14.4753 0 9.32513 0C4.175 0 0 4.17472 0 9.3245C0 14.4743 4.175 18.649 9.32513 18.649Z" fill="#F5322C"/>
<path d="M33.0758 4.16895C33.0758 11.16 30.5116 17.5608 26.2687 22.4767H33.0758V32.2624H4.98047V22.4767C15.0804 22.4767 23.2895 14.259 23.2895 4.16895H33.0758Z" fill="#F5322C"/>
<path d="M49.209 7.47997C47.8255 7.47997 46.7555 7.64598 45.907 7.9319V15.3749H43.2598V5.08198C44.219 5.08198 45.0123 5.29411 45.6764 5.6907C46.774 5.20188 47.89 4.98975 49.209 4.98975V7.47997Z" fill="#A3AEBF"/>
<path d="M61.0346 11.2153H54.0246C54.2091 12.7094 54.9101 13.4842 56.9485 13.4842C57.9354 13.4842 59.3282 13.2536 60.4074 12.9216V14.8676C59.3835 15.2827 57.7602 15.5686 56.349 15.5686C53.3051 15.5686 51.2852 13.7332 51.2852 10.3576C51.2852 7.14794 53.2682 4.98975 56.2198 4.98975C59.1437 4.98975 61.136 7.04649 61.136 10.127C61.1268 10.4867 61.0715 10.9202 61.0346 11.2153ZM54.0061 9.51826H58.4243C58.2583 7.96879 57.5204 6.99115 56.2106 6.99115C54.9008 6.99115 54.1629 7.98724 54.0061 9.51826Z" fill="#A3AEBF"/>
<path d="M72.674 15.4671C71.8438 15.4671 71.0137 15.2549 70.3681 14.9229C69.4272 15.338 68.3112 15.5685 67.232 15.5685C64.8892 15.5685 63.4688 14.3972 63.4688 12.3958C63.4688 10.3944 64.9999 9.22307 67.6286 9.22307C68.3665 9.22307 69.1966 9.35219 70.0268 9.61966V9.01094C70.0268 7.78428 69.1966 7.06488 67.7393 7.06488C66.697 7.06488 65.3965 7.24934 64.2989 7.5537V5.62608C65.3412 5.22949 66.8077 4.98047 68.2835 4.98047C71.0414 4.98047 72.6647 6.38237 72.6647 8.76192V15.4671H72.674ZM68.2927 13.6778C68.8554 13.6778 69.4641 13.5671 70.0268 13.3366V11.2983C69.418 11.0308 68.8185 10.9386 68.2927 10.9386C67.0106 10.9386 66.2174 11.4458 66.2174 12.3405C66.2174 13.1798 67.0106 13.6778 68.2927 13.6778Z" fill="#A3AEBF"/>
<path d="M76.6035 1.20819L79.2507 0.451904V15.3748H76.6035V1.20819Z" fill="#A3AEBF"/>
<path d="M53.784 25.2434C53.784 28.4346 51.7455 30.5743 48.6833 30.5743C47.6964 30.5743 46.7186 30.3069 45.907 29.8365V34.5402H43.2598V20.0785C44.1821 20.0785 44.9754 20.263 45.6026 20.6411C46.4881 20.2261 47.5857 19.9771 48.6648 19.9771C51.7179 19.9863 53.784 22.0891 53.784 25.2434ZM51.0445 25.2619C51.0445 23.3527 49.8547 22.0707 47.9823 22.0707C47.3366 22.0707 46.5987 22.2551 45.907 22.5595V27.8074C46.5895 28.2409 47.3459 28.4899 48.0376 28.4899C49.8547 28.4899 51.0445 27.2079 51.0445 25.2619Z" fill="#A3AEBF"/>
<path d="M62.0762 22.4858C60.6927 22.4858 59.6227 22.6518 58.7741 22.9377V30.3807H56.127V20.0786C57.0862 20.0786 57.8795 20.2907 58.5436 20.6873C59.6412 20.1985 60.7572 19.9863 62.0762 19.9863V22.4858Z" fill="#A3AEBF"/>
<path d="M63.377 25.2804C63.377 22.1076 65.5722 19.9863 68.8558 19.9863C72.1026 19.9863 74.3162 22.0984 74.3162 25.2804C74.3162 28.4623 72.1026 30.5744 68.8558 30.5744C65.5722 30.5652 63.377 28.4531 63.377 25.2804ZM71.5768 25.2804C71.5768 23.3527 70.4607 22.0707 68.8374 22.0707C67.1956 22.0707 66.0979 23.3527 66.0979 25.2804C66.0979 27.208 67.1956 28.49 68.8374 28.49C70.4607 28.49 71.5768 27.208 71.5768 25.2804Z" fill="#A3AEBF"/>
<path d="M75.3757 32.6495C76.132 32.6495 76.6393 32.1607 76.6393 31.4044V20.1799H79.2865V31.8194C79.2865 33.5534 78.0782 34.7247 76.2427 34.7247C75.7354 34.7247 75.182 34.6509 74.6562 34.4941V32.548C74.9053 32.6034 75.1267 32.6495 75.3757 32.6495Z" fill="#A3AEBF"/>
<path d="M91.3979 26.2212H84.3879C84.5723 27.7153 85.2733 28.49 87.3118 28.49C88.2987 28.49 89.6915 28.2595 90.7706 27.9274V29.8735C89.7468 30.2885 88.1235 30.5744 86.7122 30.5744C83.6684 30.5744 81.6484 28.7391 81.6484 25.3634C81.6484 22.1538 83.6315 19.9956 86.5831 19.9956C89.507 19.9956 91.4993 22.0523 91.4993 25.1328C91.4901 25.4833 91.4348 25.9168 91.3979 26.2212ZM84.3694 24.5241H88.7876C88.6215 22.9746 87.8836 21.997 86.5739 21.997C85.2549 21.9878 84.517 22.9931 84.3694 24.5241Z" fill="#A3AEBF"/>
<path d="M99.45 22.0707C97.3563 22.0707 95.9543 23.3527 95.9543 25.2804C95.9543 27.208 97.3747 28.49 99.5054 28.49C100.206 28.49 101.221 28.3055 102.06 28.0196V29.9657C101.23 30.3254 99.8836 30.5744 98.6568 30.5744C95.4101 30.5744 93.2148 28.4623 93.2148 25.2804C93.2148 22.0984 95.4101 19.9863 98.6568 19.9863C99.6806 19.9863 100.981 20.2354 101.867 20.595V22.5411C101.184 22.2552 100.206 22.0707 99.45 22.0707Z" fill="#A3AEBF"/>
<path d="M110.786 28.3977V30.3437C109.992 30.4913 109.199 30.5743 108.516 30.5743C106.423 30.5743 105.021 29.2185 105.021 27.1525V22.0706H103.545V20.1799H105.021V17.9479L107.668 17.1917V20.1799H110.693V22.0706H107.668V26.7375C107.668 27.7982 108.35 28.4899 109.365 28.4899C109.835 28.4899 110.306 28.453 110.786 28.3977Z" fill="#A3AEBF"/>
<path d="M115.804 26.4333L115.085 26.2673C113.369 25.9076 112.271 25.2804 112.271 23.3805C112.271 21.2684 113.729 19.9956 116.164 19.9956C117.298 19.9956 118.525 20.2446 119.374 20.6228V22.4951C118.368 22.1354 117.335 22.0062 116.708 22.0062C115.481 22.0062 114.974 22.3659 114.974 22.947C114.974 23.4911 115.537 23.7586 116.413 23.9523L117.095 24.1183C118.774 24.4965 120.001 25.2896 120.001 27.2726C120.001 29.3478 118.544 30.5744 116.145 30.5744C115.066 30.5744 113.59 30.3254 112.65 29.8181V27.9459C113.673 28.3978 114.78 28.573 115.638 28.573C116.773 28.573 117.28 28.2318 117.28 27.5677C117.28 26.959 116.717 26.6362 115.804 26.4333Z" fill="#A3AEBF"/>
</svg>
